<?xml version="1.0" encoding="utf-8"?>
<!-- Generator: Adobe Illustrator 23.0.6, SVG Export Plug-In . SVG Version: 6.00 Build 0)  -->
<svg version="1.1" xmlns="http://www.w3.org/2000/svg" xmlns:xlink="http://www.w3.org/1999/xlink" x="0px" y="0px"
	 viewBox="0 0 106.02 93.24" style="enable-background:new 0 0 106.02 93.24;" xml:space="preserve">
<style type="text/css">
	.st0{fill:#1A3B67;}
	.st1{fill:#1976D2;}
	.st2{fill:#265E99;}
</style>
<g id="Layer_2">
</g>
<g id="Layer_1">
	<g>
		<g>
			<path class="st0" d="M80.81,0.03c0.46,0.68,25,43.34,25,43.34l-26.7,0.91L66.66,24.45L80.81,0.03z"/>
			<path class="st1" d="M30.6,0.03l50.21,0L66.66,24.45c0,0-12.78,0.46-22.82-7.08S30.6,0.03,30.6,0.03z"/>
			<path class="st2" d="M105.82,43.36l-25-43.34L66.66,24.45c0,0,9.81,0.16,20.31,5.61C98.46,36.01,105.82,43.36,105.82,43.36z"/>
		</g>
		<g>
			<path class="st0" d="M0.17,46.56C0.53,45.83,25.2,3.24,25.2,3.24L39.33,25.9L28.39,46.6L0.17,46.56z"/>
			<path class="st1" d="M25.29,90.04L0.17,46.56l28.23,0.03c0,0,6.79,10.84,5.29,23.3C32.19,82.36,25.29,90.04,25.29,90.04z"/>
			<path class="st2" d="M25.2,3.24L0.17,46.56l28.23,0.03c0,0-4.77-8.57-5.31-20.39C22.49,13.29,25.2,3.24,25.2,3.24z"/>
		</g>
		<g>
			<path class="st0" d="M80.79,93.09c-0.82,0.05-50.03,0-50.03,0l12.55-23.59l23.4-0.87L80.79,93.09z"/>
			<path class="st1" d="M105.9,49.6L80.79,93.09L66.71,68.63c0,0,5.99-11.3,17.53-16.23S105.9,49.6,105.9,49.6z"/>
			<path class="st2" d="M30.75,93.09l50.03,0L66.71,68.63c0,0-5.03,8.42-15.01,14.79C40.81,90.39,30.75,93.09,30.75,93.09z"/>
		</g>
	</g>
</g>
</svg>
